<?xml version="1.0" encoding="utf-8"?>
<!-- Generator: Adobe Illustrator 26.3.1, SVG Export Plug-In . SVG Version: 6.00 Build 0)  -->
<svg version="1.1" id="Laag_1" xmlns="http://www.w3.org/2000/svg" xmlns:xlink="http://www.w3.org/1999/xlink" x="0px" y="0px"
	 viewBox="0 0 100 100" style="enable-background:new 0 0 100 100;" xml:space="preserve">
<style type="text/css">
	.st0{fill:#90A3A7;}
</style>
<g>
	<path id="shape-30" class="st0" d="M18.8,42.7c1.6,0.6,3.2,0.9,4.9,0.9c7.7,0,14-6.2,14.1-14c0-3.2-1.1-6.3-3.1-8.8
		c7.2,2.6,11,10.6,8.4,17.9c-2,5.6-7.3,9.3-13.3,9.2C25.4,47.9,21.4,46,18.8,42.7z"/>
	<path id="shape-31" class="st0" d="M76,78.1H24c-2.8,0-5.6-0.6-8.1-2c-2.3-1.2-4.2-3.1-5.5-5.3c-1.4-2.4-2.1-5.1-2-7.9
		c0-2.8,0.7-5.5,2-7.9c1.3-2.2,3.2-4.1,5.5-5.3c0.7-0.4,1.5-0.7,2.3-1c0,0,0.1-0.1,0.3-0.1c3.1,2.2,6.9,3.4,10.8,3.4
		c10.4,0,18.7-8.4,18.8-18.8c0-0.6,0-1.1-0.1-1.7c4-4.9,10-7.7,16.4-7.7C75.7,23.6,85,32.6,85.2,44c0,1.9-0.3,3.9-0.9,5.7
		c2.3,1.2,4.2,3.1,5.5,5.3c1.4,2.4,2.1,5.1,2,7.9c0,2.8-0.7,5.5-2,7.9c-1.3,2.2-3.2,4.1-5.5,5.3C81.7,77.5,78.9,78.2,76,78.1z"/>
</g>
</svg>
