<?xml version="1.0" encoding="utf-8"?>
<!-- Generator: Adobe Illustrator 26.3.1, SVG Export Plug-In . SVG Version: 6.00 Build 0)  -->
<svg version="1.1" id="Laag_1" xmlns="http://www.w3.org/2000/svg" xmlns:xlink="http://www.w3.org/1999/xlink" x="0px" y="0px"
	 viewBox="0 0 100 100" style="enable-background:new 0 0 100 100;" xml:space="preserve">
<style type="text/css">
	.st0{fill:#90A3A7;}
</style>
<g>
	<path id="shape-16" class="st0" d="M30.5,79.7c1,0.6,1.3,1.8,0.8,2.8L28,88.3c-0.6,1-1.9,1.3-2.9,0.7s-1.3-1.8-0.8-2.8l3.3-5.7
		C28.3,79.5,29.5,79.1,30.5,79.7z"/>
	<path id="shape-17" class="st0" d="M51.4,79.7c1,0.6,1.3,1.8,0.8,2.8l-3.3,5.7c-0.6,1-1.9,1.3-2.9,0.7s-1.3-1.8-0.8-2.8l3.3-5.7
		C49.1,79.5,50.4,79.1,51.4,79.7z"/>
	<path id="shape-18" class="st0" d="M72.2,79.7c1,0.6,1.3,1.8,0.8,2.8l-3.3,5.7c-0.6,1-1.9,1.3-2.9,0.7s-1.3-1.8-0.8-2.8l3.3-5.7
		C69.9,79.5,71.2,79.1,72.2,79.7z"/>
	<path id="shape-30" class="st0" d="M18.7,37.5c1.6,0.6,3.2,0.9,4.9,0.9c7.7,0,14-6.2,14.1-14c0-3.2-1.1-6.3-3.1-8.8
		c7.2,2.6,11,10.6,8.4,17.9c-2,5.6-7.3,9.3-13.3,9.2C25.3,42.7,21.3,40.8,18.7,37.5z"/>
	<path id="shape-31" class="st0" d="M75.9,72.9h-52c-2.8,0-5.6-0.6-8.1-2c-2.3-1.2-4.2-3.1-5.5-5.3c-1.4-2.4-2.1-5.1-2-7.9
		c0-2.8,0.7-5.5,2-7.9c1.3-2.2,3.2-4.1,5.5-5.3c0.7-0.4,1.5-0.7,2.3-1c0,0,0.1-0.1,0.3-0.1c3.1,2.2,6.9,3.4,10.8,3.4
		c10.4,0,18.7-8.4,18.8-18.8c0-0.6,0-1.1-0.1-1.7c4-4.9,10-7.7,16.4-7.7c11.3-0.2,20.6,8.8,20.8,20.2c0,1.9-0.3,3.9-0.9,5.7
		c2.3,1.2,4.2,3.1,5.5,5.3c1.4,2.4,2.1,5.1,2,7.9c0,2.8-0.7,5.5-2,7.9c-1.3,2.2-3.2,4.1-5.5,5.3C81.6,72.3,78.8,73,75.9,72.9z"/>
	<path id="shape-17_00000074413055862554417990000012072728897788239510_" class="st0" d="M62.1,79.7c1,0.6,1.3,1.8,0.8,2.8
		l-3.3,5.7c-0.6,1-1.9,1.3-2.9,0.7s-1.3-1.8-0.8-2.8l3.3-5.7C59.8,79.5,61.1,79.1,62.1,79.7z"/>
	<path id="shape-17_00000017509857303695190480000017373574782965329078_" class="st0" d="M40.7,79.7c1,0.6,1.3,1.8,0.8,2.8
		l-3.3,5.7c-0.6,1-1.9,1.3-2.9,0.7s-1.3-1.8-0.8-2.8l3.3-5.7C38.4,79.5,39.7,79.1,40.7,79.7z"/>
</g>
</svg>
