<?xml version="1.0" encoding="utf-8"?>
<!-- Generator: Adobe Illustrator 26.3.1, SVG Export Plug-In . SVG Version: 6.00 Build 0)  -->
<svg version="1.1" id="Laag_1" xmlns="http://www.w3.org/2000/svg" xmlns:xlink="http://www.w3.org/1999/xlink" x="0px" y="0px"
	 viewBox="0 0 100 100" style="enable-background:new 0 0 100 100;" xml:space="preserve">
<style type="text/css">
	.st0{fill:#90A3A7;}
</style>
<g>
	<path id="shape-30" class="st0" d="M18.7,35.6c1.6,0.6,3.2,0.9,4.9,0.9c7.7,0,14-6.2,14.1-14c0-3.2-1.1-6.3-3.1-8.8
		c7.2,2.6,11,10.6,8.4,17.9c-2,5.6-7.3,9.3-13.3,9.2C25.3,40.8,21.3,38.9,18.7,35.6z"/>
	<path id="shape-16" class="st0" d="M30.5,77.8c1,0.6,1.3,1.8,0.8,2.8L28,86.4c-0.6,1-1.9,1.3-2.9,0.7s-1.3-1.8-0.8-2.8l3.3-5.7
		C28.3,77.6,29.5,77.2,30.5,77.8z"/>
	<path id="shape-18" class="st0" d="M72.2,77.8c1,0.6,1.3,1.8,0.8,2.8l-3.3,5.7c-0.6,1-1.9,1.3-2.9,0.7s-1.3-1.8-0.8-2.8l3.3-5.7
		C69.9,77.6,71.2,77.2,72.2,77.8z"/>
	<polygon class="st0" points="46.5,81 42.9,81 53.4,66.8 51.6,77.5 55.3,77.5 44.7,91.7 	"/>
	<path class="st0" d="M89.7,47.9c-1.3-2.2-3.2-4.1-5.5-5.3c0.6-1.8,0.9-3.8,0.9-5.7c-0.2-11.4-9.5-20.4-20.8-20.2
		c-6.4,0-12.4,2.8-16.4,7.7C48,25,48,25.5,48,26.1c-0.1,10.4-8.4,18.8-18.8,18.8c-3.9,0-7.7-1.2-10.8-3.4c-0.2,0-0.3,0.1-0.3,0.1
		c-0.8,0.3-1.6,0.6-2.3,1c-2.3,1.2-4.2,3.1-5.5,5.3c-1.3,2.4-2,5.1-2,7.9c-0.1,2.8,0.6,5.5,2,7.9c1.3,2.2,3.2,4.1,5.5,5.3
		c2.5,1.4,5.3,2,8.1,2H47l11.3-15l-2.5,15h20.1c2.9,0.1,5.7-0.6,8.3-2c2.3-1.2,4.2-3.1,5.5-5.3c1.3-2.4,2-5.1,2-7.9
		C91.8,53,91.1,50.3,89.7,47.9z"/>
</g>
</svg>
