<?xml version="1.0" encoding="utf-8"?>
<!-- Generator: Adobe Illustrator 26.3.1, SVG Export Plug-In . SVG Version: 6.00 Build 0)  -->
<svg version="1.1" id="Laag_1" xmlns="http://www.w3.org/2000/svg" xmlns:xlink="http://www.w3.org/1999/xlink" x="0px" y="0px"
	 viewBox="0 0 100 100" style="enable-background:new 0 0 100 100;" xml:space="preserve">
<style type="text/css">
	.st0{fill:#90A3A7;}
</style>
<g>
	<path id="shape-30" class="st0" d="M18.7,35.6c1.6,0.6,3.2,0.9,4.9,0.9c7.7,0,14-6.2,14.1-14c0-3.2-1.1-6.3-3.1-8.8
		c7.2,2.6,11,10.6,8.4,17.9c-2,5.6-7.3,9.3-13.3,9.2C25.3,40.8,21.3,38.9,18.7,35.6z"/>
	<polygon class="st0" points="46.5,81 42.9,81 53.4,66.8 51.6,77.5 55.3,77.5 44.7,91.7 	"/>
	<path class="st0" d="M89.7,47.9c-1.3-2.2-3.2-4.1-5.5-5.3c0.6-1.8,0.9-3.8,0.9-5.7c-0.2-11.4-9.5-20.4-20.8-20.2
		c-6.4,0-12.4,2.8-16.4,7.7C48,25,48,25.5,48,26.1c-0.1,10.4-8.4,18.8-18.8,18.8c-3.9,0-7.7-1.2-10.8-3.4c-0.2,0-0.3,0.1-0.3,0.1
		c-0.8,0.3-1.6,0.6-2.3,1c-2.3,1.2-4.2,3.1-5.5,5.3c-1.3,2.4-2,5.1-2,7.9c-0.1,2.8,0.6,5.5,2,7.9c1.3,2.2,3.2,4.1,5.5,5.3
		c2.5,1.4,5.3,2,8.1,2H47l11.3-15l-2.5,15h20.1c2.9,0.1,5.7-0.6,8.3-2c2.3-1.2,4.2-3.1,5.5-5.3c1.3-2.4,2-5.1,2-7.9
		C91.8,53,91.1,50.3,89.7,47.9z"/>
	<path id="shape-10" class="st0" d="M30.6,81c1.2,0,2.2,1,2.2,2.2s-1,2.2-2.2,2.2s-2.2-1-2.2-2.2C28.4,82,29.4,81,30.6,81z"/>
	<path id="shape-12" class="st0" d="M32.5,77.5c0.6,0,1.1,0.5,1.1,1.1s-0.5,1.1-1.1,1.1c-0.6,0-1.1-0.5-1.1-1.1
		C31.3,78,31.9,77.5,32.5,77.5z"/>
	<path id="shape-13" class="st0" d="M69.4,78.6c1.2,0,2.2,1,2.2,2.2s-1,2.2-2.2,2.2s-2.2-1-2.2-2.2C67.2,79.6,68.2,78.6,69.4,78.6z"
		/>
	<path id="shape-14" class="st0" d="M61.7,85.2c0.6,0,1.1,0.5,1.1,1.1s-0.5,1.1-1.1,1.1s-1.1-0.5-1.1-1.1
		C60.6,85.7,61.1,85.2,61.7,85.2z"/>
</g>
</svg>
