<?xml version="1.0" encoding="utf-8"?>
<!-- Generator: Adobe Illustrator 26.3.1, SVG Export Plug-In . SVG Version: 6.00 Build 0)  -->
<svg version="1.1" id="Laag_1" xmlns="http://www.w3.org/2000/svg" xmlns:xlink="http://www.w3.org/1999/xlink" x="0px" y="0px"
	 viewBox="0 0 100 100" style="enable-background:new 0 0 100 100;" xml:space="preserve">
<style type="text/css">
	.st0{fill:#90A3A7;}
</style>
<g>
	<polygon class="st0" points="44.5,77.4 39.6,77.4 53.7,58.4 51.3,72.7 56.2,72.7 42.1,91.7 	"/>
	<path class="st0" d="M55.8,62.5l2.5-14.6L47.1,62.5H24c-2.8,0-5.6-0.6-8.1-2c-2.3-1.2-4.2-3.1-5.5-5.3c-1.4-2.4-2.1-5.1-2-7.9
		c0-2.8,0.7-5.5,2-7.9c1.3-2.2,3.2-4.1,5.5-5.3c0.7-0.4,1.5-0.7,2.3-1C18,32.5,18,31.7,18,31c0.2-8.5,7.1-15.2,15.6-15.1
		c4.3,0,8.4,1.7,11.4,4.8c3.4-7.6,10.9-12.4,19.2-12.3C75.5,8.2,84.8,17.2,85,28.5c0,1.9-0.3,3.9-0.9,5.7c2.3,1.2,4.2,3.1,5.5,5.3
		c1.4,2.4,2.1,5.1,2,7.9c0,2.8-0.7,5.5-2,7.9c-1.3,2.2-3.2,4.1-5.5,5.3c-2.5,1.3-5.3,2-8.1,2H55.8V62.5z"/>
	<path id="shape-10" class="st0" d="M24.7,77.1c2.3,0,4.2,1.9,4.2,4.2s-1.9,4.2-4.2,4.2s-4.2-1.9-4.2-4.2S22.4,77.1,24.7,77.1z"/>
	<path id="shape-12" class="st0" d="M35.1,68.8c1.2,0,2.1,0.9,2.1,2.1S36.3,73,35.1,73S33,72.1,33,70.9C33,69.7,34,68.8,35.1,68.8z"
		/>
	<path id="shape-13" class="st0" d="M74.7,70.8c2.3,0,4.2,1.9,4.2,4.2s-1.9,4.2-4.2,4.2s-4.2-1.9-4.2-4.2S72.4,70.8,74.7,70.8z"/>
	<path id="shape-14" class="st0" d="M60.1,83.3c1.2,0,2.1,0.9,2.1,2.1s-0.9,2.1-2.1,2.1c-1.2,0-2.1-0.9-2.1-2.1
		C58,84.3,59,83.3,60.1,83.3z"/>
</g>
</svg>
