<?xml version="1.0" encoding="utf-8"?>
<!-- Generator: Adobe Illustrator 26.3.1, SVG Export Plug-In . SVG Version: 6.00 Build 0)  -->
<svg version="1.1" id="Laag_1" xmlns="http://www.w3.org/2000/svg" xmlns:xlink="http://www.w3.org/1999/xlink" x="0px" y="0px"
	 viewBox="0 0 100 100" style="enable-background:new 0 0 100 100;" xml:space="preserve">
<style type="text/css">
	.st0{fill:#90A3A7;}
</style>
<g>
	<path id="shape-24" class="st0" d="M50,25c13.8,0,25,11.2,25,25S63.8,75,50,75S25,63.8,25,50S36.2,25,50,25z"/>
	<path id="shape-25" class="st0" d="M47.4,87.7v-5.1c0-1.5,1.2-2.6,2.6-2.6s2.6,1.2,2.6,2.6l0,0v5.1c0,1.5-1.2,2.6-2.6,2.6
		S47.4,89.2,47.4,87.7z M70.3,82.1l-3-4.2c-0.9-1.2-0.6-2.8,0.6-3.7c1.2-0.9,2.8-0.6,3.7,0.6l0,0l3,4.2c0.9,1.2,0.7,2.8-0.5,3.7
		C72.9,83.6,71.3,83.4,70.3,82.1L70.3,82.1z M26,82.7c-1.2-0.9-1.4-2.5-0.6-3.7l3-4.2c0.9-1.2,2.5-1.4,3.7-0.5
		c1.1,0.9,1.4,2.5,0.6,3.6l-3,4.2C28.8,83.3,27.2,83.5,26,82.7L26,82.7z M85.5,64.2l-4.9-1.6c-1.4-0.5-2.1-1.9-1.7-3.3
		c0.5-1.4,1.9-2.1,3.3-1.7l4.9,1.6c1.4,0.4,2.2,1.9,1.8,3.3c-0.4,1.4-1.9,2.2-3.3,1.8C85.6,64.2,85.6,64.2,85.5,64.2L85.5,64.2z
		 M11.2,62.5c-0.5-1.4,0.3-2.9,1.7-3.3l0,0l4.9-1.6c1.4-0.4,2.9,0.4,3.3,1.8c0.4,1.3-0.3,2.8-1.6,3.2l-4.9,1.6
		C13.1,64.6,11.6,63.9,11.2,62.5L11.2,62.5L11.2,62.5z M78.9,40.7c-0.5-1.4,0.3-2.9,1.7-3.3l0,0l4.9-1.6c1.4-0.4,2.9,0.4,3.3,1.8
		c0.4,1.3-0.3,2.8-1.6,3.2l-4.9,1.6C80.9,42.9,79.4,42.1,78.9,40.7L78.9,40.7L78.9,40.7z M17.7,42.4l-4.9-1.6
		c-1.4-0.4-2.2-1.9-1.8-3.3s1.9-2.2,3.3-1.8h0.1l4.9,1.6c1.4,0.4,2.2,1.9,1.8,3.3c-0.4,1.4-1.9,2.2-3.3,1.8
		C17.8,42.5,17.8,42.5,17.7,42.4L17.7,42.4z M67.9,25.8c-1.2-0.9-1.4-2.5-0.6-3.7l3-4.2c0.9-1.2,2.5-1.4,3.7-0.6
		c1.2,0.9,1.4,2.5,0.6,3.7l0,0l-3,4.2C70.7,26.4,69.1,26.6,67.9,25.8z M28.4,25.2l-3-4.2c-0.8-1.2-0.6-2.8,0.6-3.7
		c1.2-0.8,2.8-0.6,3.6,0.6l3,4.2c0.9,1.2,0.6,2.8-0.6,3.7C30.9,26.6,29.3,26.4,28.4,25.2L28.4,25.2z M47.4,17.4v-5.1
		c0-1.5,1.2-2.6,2.6-2.6s2.6,1.2,2.6,2.6v5.1c0,1.5-1.2,2.6-2.6,2.6S47.4,18.9,47.4,17.4L47.4,17.4z"/>
</g>
</svg>
