<?xml version="1.0" encoding="utf-8"?>
<!-- Generator: Adobe Illustrator 26.3.1, SVG Export Plug-In . SVG Version: 6.00 Build 0)  -->
<svg version="1.1" id="Laag_1" xmlns="http://www.w3.org/2000/svg" xmlns:xlink="http://www.w3.org/1999/xlink" x="0px" y="0px"
	 viewBox="0 0 100 100" style="enable-background:new 0 0 100 100;" xml:space="preserve">
<style type="text/css">
	.st0{fill:#90A3A7;}
</style>
<g>
	<path id="shape-21" class="st0" d="M76,82.3H24c-2.8,0-5.6-0.6-8.1-2c-2.3-1.2-4.2-3.1-5.5-5.3c-1.4-2.4-2.1-5.1-2-7.9
		c0-2.8,0.7-5.5,2-7.9c1.3-2.2,3.2-4.1,5.5-5.3c0.7-0.4,1.5-0.7,2.3-1c0-0.1,0.3-0.1,0.8-0.3l0.6-0.2c6.6,6.5,17.1,6.4,23.6-0.2
		c4.1-4.2,5.8-10.3,4.2-16c1.9-2.5,4.4-4.6,7.2-6c3-1.5,6.3-2.3,9.6-2.3C75.5,28,84.8,37,85,48.3c0,1.9-0.3,3.9-0.9,5.7
		c2.3,1.2,4.2,3.1,5.5,5.3c1.4,2.4,2.1,5.1,2,7.9c0,2.8-0.7,5.5-2,7.9c-1.3,2.2-3.2,4.1-5.5,5.3C81.7,81.7,78.9,82.3,76,82.3z"/>
	<path id="shape-22" class="st0" d="M31.2,28.1c6.9,0,12.5,5.6,12.5,12.5s-5.6,12.5-12.5,12.5s-12.5-5.6-12.5-12.5
		S24.3,28.1,31.2,28.1z"/>
	<path id="shape-23" class="st0" d="M11.4,52.1c-0.6-1-0.2-2.3,0.8-2.8l3.6-2.1c1-0.6,2.3-0.2,2.8,0.8c0.6,1,0.2,2.3-0.8,2.8
		l-3.6,2.1C13.3,53.4,12,53.1,11.4,52.1L11.4,52.1z M14.5,39.8l-4.1-0.7c-1.1-0.2-1.9-1.2-1.8-2.4c0.2-1.1,1.2-1.9,2.4-1.8h0.1
		l4.1,0.7c1.1,0.2,1.9,1.3,1.7,2.4C16.7,39.2,15.6,40,14.5,39.8z M40.6,29.5c-0.9-0.7-1-2.1-0.3-2.9l2.7-3.2c0.7-0.9,2.1-1,2.9-0.3
		c0.9,0.7,1,2.1,0.3,2.9l-2.7,3.2C42.8,30.1,41.5,30.2,40.6,29.5L40.6,29.5L40.6,29.5z M18.9,29.2L16.2,26c-0.7-0.9-0.6-2.2,0.4-2.9
		c0.9-0.7,2.1-0.6,2.8,0.3l2.7,3.2c0.8,0.9,0.7,2.2-0.2,2.9C21.1,30.2,19.8,30.1,18.9,29.2C19,29.2,19,29.2,18.9,29.2z M29.2,24
		v-4.2c0-1.2,0.9-2.1,2.1-2.1c1.2,0,2.1,0.9,2.1,2.1V24c0,1.2-0.9,2.1-2.1,2.1C30.1,26,29.2,25.1,29.2,24z"/>
</g>
</svg>
