<?xml version="1.0" encoding="utf-8"?>
<!-- Generator: Adobe Illustrator 26.3.1, SVG Export Plug-In . SVG Version: 6.00 Build 0)  -->
<svg version="1.1" id="Laag_1" xmlns="http://www.w3.org/2000/svg" xmlns:xlink="http://www.w3.org/1999/xlink" x="0px" y="0px"
	 viewBox="0 0 100 100" style="enable-background:new 0 0 100 100;" xml:space="preserve">
<style type="text/css">
	.st0{fill:#90A3A7;}
</style>
<g>
	<path id="shape-16" class="st0" d="M30.5,77.8c1,0.6,1.3,1.8,0.8,2.8L28,86.4c-0.6,1-1.9,1.3-2.9,0.7s-1.3-1.8-0.8-2.8l3.3-5.7
		C28.3,77.6,29.5,77.2,30.5,77.8z"/>
	<path id="shape-18" class="st0" d="M72.2,77.8c1,0.6,1.3,1.8,0.8,2.8l-3.3,5.7c-0.6,1-1.9,1.3-2.9,0.7s-1.3-1.8-0.8-2.8l3.3-5.7
		C69.9,77.6,71.2,77.2,72.2,77.8z"/>
	<path id="shape-19" class="st0" d="M31.2,16.9c6.9,0,12.5,5.6,12.5,12.5s-5.6,12.5-12.5,12.5s-12.5-5.6-12.5-12.5
		S24.3,16.9,31.2,16.9z"/>
	<path id="shape-20" class="st0" d="M11.4,40.8c-0.6-1-0.2-2.3,0.8-2.8l3.6-2.1c1-0.6,2.3-0.2,2.8,0.8c0.6,1,0.2,2.3-0.8,2.8
		l-3.6,2.1C13.3,42.1,12,41.8,11.4,40.8L11.4,40.8z M14.5,28.5l-4.1-0.7c-1.1-0.2-1.9-1.2-1.8-2.4c0.2-1.1,1.2-1.9,2.4-1.8h0.1
		l4.1,0.7c1.1,0.2,1.9,1.3,1.7,2.4C16.7,28,15.6,28.7,14.5,28.5z M40.6,18.2c-0.9-0.7-1-2.1-0.3-2.9l2.7-3.2c0.7-0.9,2.1-1,2.9-0.3
		s1,2.1,0.3,2.9l-2.7,3.2C42.8,18.8,41.5,18.9,40.6,18.2L40.6,18.2L40.6,18.2z M18.9,17.9l-2.7-3.2c-0.7-0.9-0.6-2.2,0.4-2.9
		c0.9-0.7,2.1-0.6,2.8,0.3l2.7,3.2c0.8,0.9,0.7,2.2-0.2,2.9C21.1,18.9,19.8,18.9,18.9,17.9C19,18,19,17.9,18.9,17.9z M29.2,12.7V8.5
		c0-1.2,0.9-2.1,2.1-2.1c1.2,0,2.1,0.9,2.1,2.1v4.2c0,1.2-0.9,2.1-2.1,2.1C30.1,14.8,29.2,13.8,29.2,12.7z"/>
	<polygon class="st0" points="46.5,81 42.9,81 53.4,66.8 51.6,77.5 55.3,77.5 44.7,91.7 	"/>
	<path class="st0" d="M89.6,47.8c-1.3-2.2-3.2-4.1-5.5-5.3c0.6-1.8,0.9-3.8,0.9-5.7c-0.2-11.4-9.5-20.4-20.8-20.2
		c-3.3,0-6.6,0.8-9.6,2.3c-2.8,1.4-5.3,3.5-7.2,6c1.6,5.7-0.1,11.8-4.2,16c-6.5,6.6-17,6.7-23.6,0.2L19,41.3
		c-0.5,0.2-0.8,0.3-0.8,0.3c-0.8,0.3-1.6,0.6-2.3,1c-2.3,1.2-4.2,3.1-5.5,5.3c-1.3,2.4-2,5.1-2,7.9c-0.1,2.8,0.6,5.5,2,7.9
		c1.3,2.2,3.2,4.1,5.5,5.3c2.5,1.4,5.3,2,8.1,2h23l11.3-15l-2.5,15H76c2.9,0.1,5.7-0.6,8.1-2.1c2.3-1.2,4.2-3.1,5.5-5.3
		c1.3-2.4,2-5.1,2-7.9C91.7,52.9,91,50.2,89.6,47.8z"/>
</g>
</svg>
