<?xml version="1.0" encoding="utf-8"?>
<!-- Generator: Adobe Illustrator 26.3.1, SVG Export Plug-In . SVG Version: 6.00 Build 0)  -->
<svg version="1.1" id="Laag_1" xmlns="http://www.w3.org/2000/svg" xmlns:xlink="http://www.w3.org/1999/xlink" x="0px" y="0px"
	 viewBox="0 0 100 100" style="enable-background:new 0 0 100 100;" xml:space="preserve">
<style type="text/css">
	.st0{fill:#90A3A7;}
</style>
<g>
	<path id="shape-2" class="st0" d="M84.2,34.2c2.3,1.2,4.2,3.1,5.5,5.3c1.4,2.4,2.1,5.1,2,7.9c0,2.8-0.7,5.5-2,7.9
		c-1.3,2.2-3.2,4.1-5.5,5.3c-2.5,1.3-5.3,2-8.1,2H24c-2.8,0-5.6-0.6-8.1-2c-2.3-1.2-4.2-3.1-5.5-5.3c-1.4-2.4-2.1-5.1-2-7.9
		c0-2.8,0.7-5.5,2-7.9c1.3-2.2,3.2-4.1,5.5-5.3c0.7-0.4,1.5-0.7,2.3-1C18,32.5,18,31.7,18,31c0.1-8.5,7.1-15.3,15.6-15.1
		c4.3,0,8.4,1.7,11.4,4.8c3.4-7.5,10.9-12.4,19.2-12.3C75.5,8.1,84.8,17.2,85,28.5C85,30.4,84.7,32.4,84.2,34.2L84.2,34.2z"/>
	<path id="shape-3" class="st0" d="M22.9,68.8h54.2c1.2,0,2.1,0.9,2.1,2.1S78.3,73,77.1,73H22.9c-1.2,0-2.1-0.9-2.1-2.1
		C20.8,69.7,21.8,68.8,22.9,68.8z"/>
	<path id="shape-4" class="st0" d="M22.9,79.2h54.2c1.2,0,2.1,0.9,2.1,2.1s-0.9,2.1-2.1,2.1H22.9c-1.2,0-2.1-0.9-2.1-2.1
		S21.8,79.2,22.9,79.2z"/>
</g>
</svg>
