<?xml version="1.0" encoding="utf-8"?>
<!-- Generator: Adobe Illustrator 26.3.1, SVG Export Plug-In . SVG Version: 6.00 Build 0)  -->
<svg version="1.1" id="Laag_1" xmlns="http://www.w3.org/2000/svg" xmlns:xlink="http://www.w3.org/1999/xlink" x="0px" y="0px"
	 viewBox="0 0 100 100" style="enable-background:new 0 0 100 100;" xml:space="preserve">
<style type="text/css">
	.st0{fill:#90A3A7;}
</style>
<g>
	<path id="shape-15" class="st0" d="M76,72.9H24c-2.8,0-5.6-0.6-8.1-2c-2.3-1.2-4.2-3.1-5.5-5.3c-1.4-2.4-2.1-5.1-2-7.9
		c0-2.8,0.7-5.5,2-7.9c1.3-2.2,3.2-4.1,5.5-5.3c0.7-0.4,1.5-0.7,2.3-1c0,0,0.3-0.1,0.8-0.3l0.6-0.2c6.6,6.5,17.1,6.4,23.6-0.2
		c4.1-4.2,5.8-10.3,4.2-16c1.9-2.5,4.4-4.6,7.2-6c3-1.5,6.3-2.3,9.6-2.3c11.3-0.2,20.6,8.8,20.8,20.2c0,1.9-0.3,3.9-0.9,5.7
		c2.3,1.2,4.2,3.1,5.5,5.3c1.4,2.4,2.1,5.1,2,7.9c0,2.8-0.7,5.5-2,7.9c-1.3,2.2-3.2,4.1-5.5,5.3C81.7,72.3,78.9,73,76,72.9z"/>
	<path id="shape-16" class="st0" d="M30.5,79.7c1,0.6,1.3,1.8,0.8,2.8L28,88.3c-0.6,1-1.9,1.3-2.9,0.7s-1.3-1.8-0.8-2.8l3.3-5.7
		C28.3,79.5,29.5,79.1,30.5,79.7z"/>
	<path id="shape-17" class="st0" d="M51.4,79.7c1,0.6,1.3,1.8,0.8,2.8l-3.3,5.7c-0.6,1-1.9,1.3-2.9,0.7s-1.3-1.8-0.8-2.8l3.3-5.7
		C49.1,79.5,50.4,79.1,51.4,79.7z"/>
	<path id="shape-17_00000074413055862554417990000012072728897788239510_" class="st0" d="M62.1,79.7c1,0.6,1.3,1.8,0.8,2.8
		l-3.3,5.7c-0.6,1-1.9,1.3-2.9,0.7s-1.3-1.8-0.8-2.8l3.3-5.7C59.8,79.5,61.1,79.1,62.1,79.7z"/>
	<path id="shape-17_00000017509857303695190480000017373574782965329078_" class="st0" d="M40.7,79.7c1,0.6,1.3,1.8,0.8,2.8
		l-3.3,5.7c-0.6,1-1.9,1.3-2.9,0.7s-1.3-1.8-0.8-2.8l3.3-5.7C38.4,79.5,39.7,79.1,40.7,79.7z"/>
	<path id="shape-18" class="st0" d="M72.2,79.7c1,0.6,1.3,1.8,0.8,2.8l-3.3,5.7c-0.6,1-1.9,1.3-2.9,0.7s-1.3-1.8-0.8-2.8l3.3-5.7
		C69.9,79.5,71.2,79.1,72.2,79.7z"/>
	<path id="shape-19" class="st0" d="M31.2,18.8c6.9,0,12.5,5.6,12.5,12.5s-5.6,12.5-12.5,12.5s-12.5-5.6-12.5-12.5
		S24.3,18.8,31.2,18.8z"/>
	<path id="shape-20" class="st0" d="M11.4,42.7c-0.6-1-0.2-2.3,0.8-2.8l3.6-2.1c1-0.6,2.3-0.2,2.8,0.8c0.6,1,0.2,2.3-0.8,2.8
		l-3.6,2.1C13.3,44,12,43.7,11.4,42.7L11.4,42.7z M14.5,30.4l-4.1-0.7c-1.1-0.2-1.9-1.2-1.8-2.4c0.2-1.1,1.2-1.9,2.4-1.8h0.1
		l4.1,0.7c1.1,0.2,1.9,1.3,1.7,2.4C16.7,29.9,15.6,30.6,14.5,30.4z M40.6,20.1c-0.9-0.7-1-2.1-0.3-2.9L43,14c0.7-0.9,2.1-1,2.9-0.3
		s1,2.1,0.3,2.9l-2.7,3.2C42.8,20.7,41.5,20.8,40.6,20.1L40.6,20.1L40.6,20.1z M18.9,19.8l-2.7-3.2c-0.7-0.9-0.6-2.2,0.4-2.9
		c0.9-0.7,2.1-0.6,2.8,0.3l2.7,3.2c0.8,0.9,0.7,2.2-0.2,2.9C21.1,20.8,19.8,20.8,18.9,19.8C19,19.9,19,19.8,18.9,19.8z M29.2,14.6
		v-4.2c0-1.2,0.9-2.1,2.1-2.1c1.2,0,2.1,0.9,2.1,2.1v4.2c0,1.2-0.9,2.1-2.1,2.1C30.1,16.7,29.2,15.7,29.2,14.6z"/>
</g>
</svg>
