<?xml version="1.0" encoding="utf-8"?>
<!-- Generator: Adobe Illustrator 26.3.1, SVG Export Plug-In . SVG Version: 6.00 Build 0)  -->
<svg version="1.1" id="Laag_1" xmlns="http://www.w3.org/2000/svg" xmlns:xlink="http://www.w3.org/1999/xlink" x="0px" y="0px"
	 viewBox="0 0 100 100" style="enable-background:new 0 0 100 100;" xml:space="preserve">
<style type="text/css">
	.st0{fill:#90A3A7;}
</style>
<g>
	<path id="shape-5" class="st0" d="M84.2,34.2c2.3,1.2,4.2,3.1,5.5,5.3c1.4,2.4,2.1,5.1,2,7.9c0,2.8-0.7,5.5-2,7.9
		c-1.3,2.2-3.2,4.1-5.5,5.3c-2.5,1.3-5.3,2-8.1,2H24c-2.8,0-5.6-0.6-8.1-2c-2.3-1.2-4.2-3.1-5.5-5.3c-1.4-2.4-2.1-5.1-2-7.9
		c0-2.8,0.7-5.5,2-7.9c1.3-2.2,3.2-4.1,5.5-5.3c0.7-0.4,1.5-0.7,2.3-1C18.1,32.5,18,31.7,18,31c0.1-8.5,7.1-15.3,15.6-15.1
		c4.3,0,8.4,1.7,11.4,4.8c3.4-7.5,10.9-12.4,19.2-12.3C75.5,8.2,84.8,17.2,85,28.6C85,30.4,84.7,32.4,84.2,34.2L84.2,34.2z"/>
	<path id="shape-6" class="st0" d="M33.2,69.8c1,0.6,1.3,1.8,0.8,2.8l-8.7,15.1c-0.6,1-1.9,1.3-2.9,0.7c-1-0.6-1.3-1.8-0.8-2.8
		l8.7-15.1C31,69.6,32.2,69.3,33.2,69.8z"/>
	<path id="shape-7" class="st0" d="M54.1,69.8c1,0.6,1.3,1.8,0.8,2.8l-8.7,15.1c-0.6,1-1.9,1.3-2.9,0.7c-1-0.6-1.3-1.8-0.8-2.8
		l8.7-15.1C51.8,69.6,53.1,69.3,54.1,69.8z"/>
	<path id="shape-8" class="st0" d="M74.9,69.8c1,0.6,1.3,1.8,0.8,2.8L67,87.7c-0.6,1-1.9,1.3-2.9,0.7c-1-0.6-1.3-1.8-0.8-2.8
		L72,70.5C72.6,69.6,73.9,69.3,74.9,69.8z"/>
	<path id="shape-8_00000018239367989075648410000017803960511056460201_" class="st0" d="M64.7,69.8c1,0.6,1.3,1.8,0.8,2.8
		l-8.7,15.1c-0.6,1-1.9,1.3-2.9,0.7c-1-0.6-1.3-1.8-0.8-2.8l8.7-15.1C62.4,69.6,63.7,69.3,64.7,69.8z"/>
	<path id="shape-8_00000112619163729246211700000011770339084349336211_" class="st0" d="M44.1,69.8c1,0.6,1.3,1.8,0.8,2.8
		l-8.7,15.1c-0.6,1-1.9,1.3-2.9,0.7c-1-0.6-1.3-1.8-0.8-2.8l8.7-15.1C41.8,69.6,43.1,69.3,44.1,69.8z"/>
</g>
</svg>
