<?xml version="1.0" encoding="utf-8"?>
<!-- Generator: Adobe Illustrator 26.3.1, SVG Export Plug-In . SVG Version: 6.00 Build 0)  -->
<svg version="1.1" id="Laag_1" xmlns="http://www.w3.org/2000/svg" xmlns:xlink="http://www.w3.org/1999/xlink" x="0px" y="0px"
	 viewBox="0 0 100 100" style="enable-background:new 0 0 100 100;" xml:space="preserve">
<style type="text/css">
	.st0{fill:#90A3A7;}
</style>
<g>
	<path id="shape-9" class="st0" d="M84.2,34.2c2.3,1.2,4.2,3.1,5.5,5.3c1.4,2.4,2.1,5.1,2,7.9c0,2.8-0.7,5.5-2,7.9
		c-1.3,2.2-3.2,4.1-5.5,5.3c-2.5,1.3-5.3,2-8.1,2H24c-2.8,0-5.6-0.6-8.1-2c-2.3-1.2-4.2-3.1-5.5-5.3c-1.4-2.4-2.1-5.1-2-7.9
		c0-2.8,0.7-5.5,2-7.9c1.3-2.2,3.2-4.1,5.5-5.3c0.7-0.4,1.5-0.7,2.3-1C18.1,32.5,18,31.7,18,31c0.1-8.5,7.1-15.3,15.6-15.1
		c4.3,0,8.4,1.7,11.4,4.8c3.4-7.5,10.9-12.4,19.2-12.3C75.5,8.2,84.8,17.2,85,28.6C85,30.4,84.7,32.4,84.2,34.2L84.2,34.2z"/>
	<path id="shape-10" class="st0" d="M25,77.1c2.3,0,4.2,1.9,4.2,4.2s-1.9,4.2-4.2,4.2s-4.2-1.9-4.2-4.2S22.7,77.1,25,77.1z"/>
	<path id="shape-11" class="st0" d="M50,68.8c2.3,0,4.2,1.9,4.2,4.2s-1.9,4.2-4.2,4.2s-4.2-1.9-4.2-4.2S47.7,68.8,50,68.8z"/>
	<path id="shape-12" class="st0" d="M35.4,68.8c1.2,0,2.1,0.9,2.1,2.1S36.6,73,35.4,73c-1.2,0-2.1-0.9-2.1-2.1
		C33.3,69.7,34.3,68.8,35.4,68.8z"/>
	<path id="shape-13" class="st0" d="M75,70.8c2.3,0,4.2,1.9,4.2,4.2s-1.9,4.2-4.2,4.2s-4.2-1.9-4.2-4.2S72.7,70.8,75,70.8z"/>
	<path id="shape-14" class="st0" d="M60.4,83.3c1.2,0,2.1,0.9,2.1,2.1s-0.9,2.1-2.1,2.1c-1.2,0-2.1-0.9-2.1-2.1
		C58.3,84.3,59.3,83.3,60.4,83.3z"/>
</g>
</svg>
