<svg data-name="4753012_blood_drop_droplet_oil_water_icon2" xmlns="http://www.w3.org/2000/svg" width="19" height="21" viewBox="0 0 19 21">
    <defs>
        <filter id="0bxzjhmxia">
            <feOffset dx="1" dy="1"/>
            <feGaussianBlur stdDeviation="3" result="blur"/>
            <feFlood flood-opacity=".161" result="color"/>
            <feComposite operator="out" in="SourceGraphic" in2="blur"/>
            <feComposite operator="in" in="color"/>
            <feComposite operator="in" in2="SourceGraphic"/>
        </filter>
        <filter id="6bcwy9avzb">
            <feOffset dx="1" dy="1"/>
            <feGaussianBlur stdDeviation="3" result="blur-2"/>
            <feFlood flood-opacity=".161" result="color-2"/>
            <feComposite operator="out" in="SourceGraphic" in2="blur-2"/>
            <feComposite operator="in" in="color-2"/>
            <feComposite operator="in" in2="SourceGraphic"/>
        </filter>
    </defs>
    <g data-type="innerShadowGroup">
        <path data-name="Path 23" d="m12.6 2.2-.6-.5-.6.6C11 2.5 4 8.6 4 14a8 8 0 0 0 16 0c0-5.4-7-11.5-7.4-11.8zm1.6 16.3-.9-1.8A3.011 3.011 0 0 0 15 14h2a5.118 5.118 0 0 1-2.8 4.5z" transform="translate(-4 -1)" style="fill:#90a3a7"/>
        <g style="filter:url(#0bxzjhmxia)">
            <path data-name="Path 23" d="m12.6 2.2-.6-.5-.6.6C11 2.5 4 8.6 4 14a8 8 0 0 0 16 0c0-5.4-7-11.5-7.4-11.8zm1.6 16.3-.9-1.8A3.011 3.011 0 0 0 15 14h2a5.118 5.118 0 0 1-2.8 4.5z" transform="translate(-4 -1)" style="fill:#fff"/>
        </g>
    </g>
    <g data-type="innerShadowGroup">
        <path data-name="Path 24" d="M19.9 3a1.1 1.1 0 1 1-1.1 1.1A1.049 1.049 0 0 1 19.9 3m0-2a3.1 3.1 0 1 0 0 6.2A3.052 3.052 0 0 0 23 4.1 3.052 3.052 0 0 0 19.9 1z" transform="translate(-4 -1)" style="fill:#90a3a7"/>
        <g style="filter:url(#6bcwy9avzb)">
            <path data-name="Path 24" d="M19.9 3a1.1 1.1 0 1 1-1.1 1.1A1.049 1.049 0 0 1 19.9 3m0-2a3.1 3.1 0 1 0 0 6.2A3.052 3.052 0 0 0 23 4.1 3.052 3.052 0 0 0 19.9 1z" transform="translate(-4 -1)" style="fill:#fff"/>
        </g>
    </g>
</svg>
