<svg data-name="Layer 2" xmlns="http://www.w3.org/2000/svg" width="22.222" height="20" viewBox="0 0 22.222 20">
    <defs>
        <filter id="l7d35eq0da">
            <feOffset dx="1" dy="1"/>
            <feGaussianBlur stdDeviation="3" result="blur"/>
            <feFlood flood-opacity=".161" result="color"/>
            <feComposite operator="out" in="SourceGraphic" in2="blur"/>
            <feComposite operator="in" in="color"/>
            <feComposite operator="in" in2="SourceGraphic"/>
        </filter>
    </defs>
    <g data-type="innerShadowGroup">
        <path data-name="Path 25" d="M13.111 3A11.111 11.111 0 0 0 2 14.111a10.989 10.989 0 0 0 4.156 8.644l.288.245h13.334l.3-.244a10.989 10.989 0 0 0 4.144-8.644A11.111 11.111 0 0 0 13.111 3zm7.011 5.667-1.456 1.511-1.622-1.622L18.556 7.1a8.044 8.044 0 0 1 1.566 1.567zm-7.011-3.445a9.167 9.167 0 0 1 1.111.067v2.155H12V5.289a9.167 9.167 0 0 1 1.111-.067zM9.178 8.556l-1.622 1.622L6.1 8.667A8.044 8.044 0 0 1 7.667 7.1zm-4.956 5.555A9.189 9.189 0 0 1 4.289 13h2.155v2.222H4.3a7.367 7.367 0 0 1-.078-1.111zm10.811 6.667a2.222 2.222 0 0 0-3.844 0H8.811a4.722 4.722 0 0 1 .167-.522A4.444 4.444 0 0 1 12 17.578v-6.8h2.222v6.811a4.444 4.444 0 0 1 2.956 2.5 3.867 3.867 0 0 1 .233.689zm4.744-5.556V13h2.156A9.189 9.189 0 0 1 22 14.111a7.367 7.367 0 0 1-.078 1.111z" transform="translate(-2 -3)" style="fill:#90a3a7"/>
        <g style="filter:url(#l7d35eq0da)">
            <path data-name="Path 25" d="M13.111 3A11.111 11.111 0 0 0 2 14.111a10.989 10.989 0 0 0 4.156 8.644l.288.245h13.334l.3-.244a10.989 10.989 0 0 0 4.144-8.644A11.111 11.111 0 0 0 13.111 3zm7.011 5.667-1.456 1.511-1.622-1.622L18.556 7.1a8.044 8.044 0 0 1 1.566 1.567zm-7.011-3.445a9.167 9.167 0 0 1 1.111.067v2.155H12V5.289a9.167 9.167 0 0 1 1.111-.067zM9.178 8.556l-1.622 1.622L6.1 8.667A8.044 8.044 0 0 1 7.667 7.1zm-4.956 5.555A9.189 9.189 0 0 1 4.289 13h2.155v2.222H4.3a7.367 7.367 0 0 1-.078-1.111zm10.811 6.667a2.222 2.222 0 0 0-3.844 0H8.811a4.722 4.722 0 0 1 .167-.522A4.444 4.444 0 0 1 12 17.578v-6.8h2.222v6.811a4.444 4.444 0 0 1 2.956 2.5 3.867 3.867 0 0 1 .233.689zm4.744-5.556V13h2.156A9.189 9.189 0 0 1 22 14.111a7.367 7.367 0 0 1-.078 1.111z" transform="translate(-2 -3)" style="fill:#fff"/>
        </g>
    </g>
</svg>
