<svg xmlns="http://www.w3.org/2000/svg" width="447.689" height="60" viewBox="0 0 447.689 60">
  <g id="logo" transform="translate(0.012)">
    <g id="Group_3" data-name="Group 3" transform="translate(82.893 13.018)">
      <path id="Path_10" data-name="Path 10" d="M691.218,138.566l.905,6.191,1.321-5.579,9.286-32.777h5.224l9.066,32.777,1.285,5.677,1-6.325L726.6,106.4h6.228l-11.391,46.97H715.8l-9.678-34.221-.746-3.585-.746,3.585L694.594,153.37h-5.64L677.6,106.4h6.191Z" transform="translate(-677.6 -106.4)" fill="#f2f4f2"/>
      <path id="Path_11" data-name="Path 11" d="M1211.75,131.665h-20.359V148.3h23.65v5.065H1185.2V106.4h29.51v5.065h-23.32V126.6h20.359Z" transform="translate(-1123.096 -106.4)" fill="#f2f4f2"/>
      <path id="Path_12" data-name="Path 12" d="M1485.377,141.174H1465.7l-4.417,12.3H1454.9l17.936-46.97h5.42l17.973,46.97h-6.35Zm-17.8-5.065h15.967l-8-21.962Z" transform="translate(-1359.798 -106.488)" fill="#f2f4f2"/>
      <path id="Path_13" data-name="Path 13" d="M1814.925,111.465h-15.1v41.9h-6.166v-41.9H1778.6V106.4h36.325Z" transform="translate(-1643.894 -106.4)" fill="#f2f4f2"/>
      <path id="Path_14" data-name="Path 14" d="M2168.593,153.37h-6.228v-21.7h-23.675v21.7H2132.5V106.4h6.191v20.188h23.675V106.4h6.228Z" transform="translate(-1954.494 -106.4)" fill="#f2f4f2"/>
      <path id="Path_15" data-name="Path 15" d="M2543.95,131.665h-20.359V148.3h23.65v5.065H2517.4V106.4h29.51v5.065h-23.32V126.6h20.359Z" transform="translate(-2292.302 -106.4)" fill="#f2f4f2"/>
      <path id="Path_16" data-name="Path 16" d="M2841.263,134.369h-11.036v19H2824V106.4h15.551q7.928,0,12.21,3.609t4.27,10.522a12.681,12.681,0,0,1-2.374,7.647,14.12,14.12,0,0,1-6.595,4.87l11.036,19.931v.392h-6.644Zm-11.036-5.065h9.519a10.773,10.773,0,0,0,7.341-2.386,8.071,8.071,0,0,0,2.729-6.4,8.54,8.54,0,0,0-2.594-6.692q-2.606-2.331-7.5-2.361h-9.482V129.3Z" transform="translate(-2561.39 -106.4)" fill="#f2f4f2"/>
      <path id="Path_17" data-name="Path 17" d="M3163.027,148.3h22.255v5.065H3156.8V106.4h6.228v41.9Z" transform="translate(-2853.472 -106.4)" fill="#f2f4f2"/>
      <path id="Path_18" data-name="Path 18" d="M3362.994,129.989l12.26-23.577h7.035l-16.2,29.449v17.52H3359.9V135.849L3343.7,106.4h7.1Z" transform="translate(-3017.505 -106.4)" fill="#f2f4f2"/>
    </g>
    <g id="Group_4" data-name="Group 4" transform="translate(-0.012)">
      <path id="shape-21" d="M62.877,129.306H14.5A15.734,15.734,0,0,1,6.951,127.5a13.056,13.056,0,0,1-5.09-4.931,15.163,15.163,0,0,1,0-14.6,13.056,13.056,0,0,1,5.09-4.931A14.708,14.708,0,0,1,9.1,102.1c0-.049.281-.135.722-.269l.575-.184A15.476,15.476,0,0,0,36.229,86.655a19.289,19.289,0,0,1,6.729-5.579,19.884,19.884,0,0,1,8.895-2.092A19.069,19.069,0,0,1,71.209,97.7a18.211,18.211,0,0,1-.8,5.322,13.056,13.056,0,0,1,5.09,4.931,15.139,15.139,0,0,1,0,14.584,13.056,13.056,0,0,1-5.09,4.931A15.4,15.4,0,0,1,62.877,129.306Z" transform="translate(0.012 -69.318)" fill="#f2f4f2"/>
      <path id="shape-22" d="M90.711,79.1A11.611,11.611,0,1,1,79.1,90.711,11.613,11.613,0,0,1,90.711,79.1Z" transform="translate(-69.421 -69.422)" fill="#ffde6b"/>
      <path id="shape-23" d="M4.626,31.933a1.927,1.927,0,0,1,.71-2.643l3.352-1.933a1.935,1.935,0,1,1,1.933,3.352L7.269,32.643a1.952,1.952,0,0,1-2.643-.71ZM7.489,20.506l-3.817-.673A1.936,1.936,0,0,1,4.247,16c.037,0,.061.012.1.012l3.817.673a1.938,1.938,0,0,1-.673,3.817Zm24.286-9.592a1.927,1.927,0,0,1-.232-2.728l2.484-2.961a1.936,1.936,0,0,1,2.961,2.5L34.5,10.681a1.951,1.951,0,0,1-2.728.232Zm-20.151-.245L9.141,7.708a1.938,1.938,0,0,1,2.973-2.484L14.6,8.185a1.934,1.934,0,0,1-2.912,2.545C11.661,10.718,11.649,10.693,11.625,10.669ZM21.131,5.8V1.933a1.933,1.933,0,0,1,3.866,0V5.8a1.933,1.933,0,0,1-3.866,0Z" transform="translate(-1.774)" fill="#ffde6b"/>
    </g>
  </g>
</svg>
