<svg xmlns="http://www.w3.org/2000/svg" width="20.749" height="20" viewBox="0 0 20.749 20">
    <defs>
        <filter id="c6rkuq6q2a" x="0" y="0" width="20.749" height="13.498" filterUnits="userSpaceOnUse">
            <feOffset dx="1" dy="1"/>
            <feGaussianBlur stdDeviation="3" result="blur"/>
            <feFlood flood-opacity=".161" result="color"/>
            <feComposite operator="out" in="SourceGraphic" in2="blur"/>
            <feComposite operator="in" in="color"/>
            <feComposite operator="in" in2="SourceGraphic"/>
        </filter>
        <filter id="0unnf4nv3b" x="3.23" y="15.231" width="3.206" height="4.769" filterUnits="userSpaceOnUse">
            <feOffset dx="1" dy="1"/>
            <feGaussianBlur stdDeviation="3" result="blur-2"/>
            <feFlood flood-opacity=".161" result="color-2"/>
            <feComposite operator="out" in="SourceGraphic" in2="blur-2"/>
            <feComposite operator="in" in="color-2"/>
            <feComposite operator="in" in2="SourceGraphic"/>
        </filter>
        <filter id="jyu4bep6sc" x="8.435" y="15.231" width="3.206" height="4.769" filterUnits="userSpaceOnUse">
            <feOffset dx="1" dy="1"/>
            <feGaussianBlur stdDeviation="3" result="blur-3"/>
            <feFlood flood-opacity=".161" result="color-3"/>
            <feComposite operator="out" in="SourceGraphic" in2="blur-3"/>
            <feComposite operator="in" in="color-3"/>
            <feComposite operator="in" in2="SourceGraphic"/>
        </filter>
        <filter id="83no2a50sd" x="13.615" y="15.231" width="3.206" height="4.769" filterUnits="userSpaceOnUse">
            <feOffset dx="1" dy="1"/>
            <feGaussianBlur stdDeviation="3" result="blur-4"/>
            <feFlood flood-opacity=".161" result="color-4"/>
            <feComposite operator="out" in="SourceGraphic" in2="blur-4"/>
            <feComposite operator="in" in="color-4"/>
            <feComposite operator="in" in2="SourceGraphic"/>
        </filter>
    </defs>
    <g data-type="innerShadowGroup">
        <path data-name="shape-5" d="M27.27 14.823a3.491 3.491 0 0 1 1.37 1.32 3.624 3.624 0 0 1 .5 1.967 4.121 4.121 0 0 1-.5 1.967 3.491 3.491 0 0 1-1.37 1.32 4.394 4.394 0 0 1-2.017.5H12.278a4.1 4.1 0 0 1-2.017-.5 3.491 3.491 0 0 1-1.37-1.32 3.624 3.624 0 0 1-.5-1.967 4.121 4.121 0 0 1 .5-1.967 3.491 3.491 0 0 1 1.37-1.32 3.973 3.973 0 0 1 .573-.249 4.072 4.072 0 0 1-.05-.548 3.8 3.8 0 0 1 3.885-3.76 3.935 3.935 0 0 1 2.839 1.2A5.2 5.2 0 0 1 22.289 8.4a5.1 5.1 0 0 1 5.18 5.03 5.389 5.389 0 0 1-.2 1.395z" transform="translate(-8.391 -8.397)" style="fill:#90a3a7"/>
        <g style="filter:url(#c6rkuq6q2a)">
            <path data-name="shape-5" d="M27.27 14.823a3.491 3.491 0 0 1 1.37 1.32 3.624 3.624 0 0 1 .5 1.967 4.121 4.121 0 0 1-.5 1.967 3.491 3.491 0 0 1-1.37 1.32 4.394 4.394 0 0 1-2.017.5H12.278a4.1 4.1 0 0 1-2.017-.5 3.491 3.491 0 0 1-1.37-1.32 3.624 3.624 0 0 1-.5-1.967 4.121 4.121 0 0 1 .5-1.967 3.491 3.491 0 0 1 1.37-1.32 3.973 3.973 0 0 1 .573-.249 4.072 4.072 0 0 1-.05-.548 3.8 3.8 0 0 1 3.885-3.76 3.935 3.935 0 0 1 2.839 1.2A5.2 5.2 0 0 1 22.289 8.4a5.1 5.1 0 0 1 5.18 5.03 5.389 5.389 0 0 1-.2 1.395z" transform="translate(-8.39 -8.4)" style="fill:#fff"/>
        </g>
    </g>
    <g data-type="innerShadowGroup">
        <path data-name="shape-6" d="M24.31 69.619a.526.526 0 0 1 .2.7l-2.167 3.76a.53.53 0 0 1-.921-.523l2.167-3.76a.583.583 0 0 1 .721-.177z" transform="translate(-18.132 -54.328)" style="fill:#90a3a7"/>
        <g style="filter:url(#0unnf4nv3b)">
            <path data-name="shape-6" d="M24.31 69.619a.526.526 0 0 1 .2.7l-2.167 3.76a.53.53 0 0 1-.921-.523l2.167-3.76a.583.583 0 0 1 .721-.177z" transform="translate(-18.13 -54.33)" style="fill:#fff"/>
        </g>
    </g>
    <g data-type="innerShadowGroup">
        <path data-name="shape-7" d="M45.21 69.619a.526.526 0 0 1 .2.7l-2.167 3.76a.53.53 0 0 1-.921-.523l2.167-3.76a.576.576 0 0 1 .721-.177z" transform="translate(-33.827 -54.328)" style="fill:#90a3a7"/>
        <g style="filter:url(#jyu4bep6sc)">
            <path data-name="shape-7" d="M45.21 69.619a.526.526 0 0 1 .2.7l-2.167 3.76a.53.53 0 0 1-.921-.523l2.167-3.76a.576.576 0 0 1 .721-.177z" transform="translate(-33.83 -54.33)" style="fill:#fff"/>
        </g>
    </g>
    <g data-type="innerShadowGroup">
        <path data-name="shape-8" d="M66.01 69.619a.526.526 0 0 1 .2.7l-2.167 3.76a.53.53 0 0 1-.921-.523l2.167-3.76a.576.576 0 0 1 .721-.177z" transform="translate(-49.447 -54.328)" style="fill:#90a3a7"/>
        <g style="filter:url(#83no2a50sd)">
            <path data-name="shape-8" d="M66.01 69.619a.526.526 0 0 1 .2.7l-2.167 3.76a.53.53 0 0 1-.921-.523l2.167-3.76a.576.576 0 0 1 .721-.177z" transform="translate(-49.45 -54.33)" style="fill:#fff"/>
        </g>
    </g>
</svg>
