<svg xmlns="http://www.w3.org/2000/svg" width="11.545" height="20" viewBox="0 0 11.545 20">
    <defs>
        <filter id="tfrg61vlda">
            <feOffset dx="1" dy="1"/>
            <feGaussianBlur stdDeviation="3" result="blur"/>
            <feFlood flood-opacity=".161" result="color"/>
            <feComposite operator="out" in="SourceGraphic" in2="blur"/>
            <feComposite operator="in" in="color"/>
            <feComposite operator="in" in2="SourceGraphic"/>
        </filter>
    </defs>
    <g data-type="innerShadowGroup">
        <path data-name="1041647_temperature_thermometer_thermothermometerstemperature_icon" d="M5.772 20A5.786 5.786 0 0 1 2.685 9.329V3.02A3.051 3.051 0 0 1 5.7 0a3.051 3.051 0 0 1 3.02 3.02v6.175a5.837 5.837 0 0 1 2.819 4.966A5.744 5.744 0 0 1 5.772 20zm1.812-9.664-.134-6.98c0-.805-.94-1.409-1.745-1.409a1.622 1.622 0 0 0-1.678 1.409V10.4a4.27 4.27 0 0 0-2.416 3.826 4.228 4.228 0 1 0 5.973-3.893zm-1.812 7.047a3.151 3.151 0 0 1-3.154-3.154A3.2 3.2 0 0 1 4.7 11.275V5.369h2.011v5.906a3.1 3.1 0 0 1 2.215 2.953 3.151 3.151 0 0 1-3.154 3.155z" style="fill-rule:evenodd;fill:#90a3a7"/>
        <g style="filter:url(#tfrg61vlda)">
            <path data-name="1041647_temperature_thermometer_thermothermometerstemperature_icon" d="M5.772 20A5.786 5.786 0 0 1 2.685 9.329V3.02A3.051 3.051 0 0 1 5.7 0a3.051 3.051 0 0 1 3.02 3.02v6.175a5.837 5.837 0 0 1 2.819 4.966A5.744 5.744 0 0 1 5.772 20zm1.812-9.664-.134-6.98c0-.805-.94-1.409-1.745-1.409a1.622 1.622 0 0 0-1.678 1.409V10.4a4.27 4.27 0 0 0-2.416 3.826 4.228 4.228 0 1 0 5.973-3.893zm-1.812 7.047a3.151 3.151 0 0 1-3.154-3.154A3.2 3.2 0 0 1 4.7 11.275V5.369h2.011v5.906a3.1 3.1 0 0 1 2.215 2.953 3.151 3.151 0 0 1-3.154 3.155z" style="fill:#fff;fill-rule:evenodd"/>
        </g>
    </g>
</svg>
