<svg xmlns="http://www.w3.org/2000/svg" width="23" height="20" viewBox="0 0 23 20">
    <defs>
        <filter id="oxf5u4i8oa">
            <feOffset dx="1" dy="1"/>
            <feGaussianBlur stdDeviation="3" result="blur"/>
            <feFlood flood-opacity=".161" result="color"/>
            <feComposite operator="out" in="SourceGraphic" in2="blur"/>
            <feComposite operator="in" in="color"/>
            <feComposite operator="in" in2="SourceGraphic"/>
        </filter>
    </defs>
    <g data-type="innerShadowGroup">
        <path data-name="Path 29" d="M33.25 56.362a3.555 3.555 0 0 1-2.707 3.576 3.254 3.254 0 0 1-3.659-2.314.989.989 0 0 1 .116-.929.781.781 0 0 1 .8-.323.857.857 0 0 1 .63.626 1.617 1.617 0 0 0 1.926 1.131 1.816 1.816 0 0 0 1.244-1.982 1.712 1.712 0 0 0-1.63-1.6h-11.5a.914.914 0 0 1 0-1.818h11.5a3.486 3.486 0 0 1 3.28 3.633zm-6.571-9.092a3.424 3.424 0 0 0 3.264-3.207 3.631 3.631 0 0 0-2.494-3.963 3.236 3.236 0 0 0-3.849 2.271.989.989 0 0 0 .115.929.781.781 0 0 0 .8.323.857.857 0 0 0 .63-.626 1.617 1.617 0 0 1 1.926-1.131 1.816 1.816 0 0 1 1.244 1.982 1.712 1.712 0 0 1-1.63 1.6h-9.864a.914.914 0 0 0 0 1.818zm9.036-3.637a3.329 3.329 0 0 0-3.08 2.375.989.989 0 0 0 .115.929.781.781 0 0 0 .8.323.857.857 0 0 0 .63-.626A1.617 1.617 0 0 1 36.1 45.5a1.816 1.816 0 0 1 1.244 1.982 1.712 1.712 0 0 1-1.63 1.6H17.643a.914.914 0 0 0 0 1.818h18.071a3.656 3.656 0 0 0 0-7.274z" transform="translate(-16 -39.995)" style="fill:#90a3a7"/>
        <g style="filter:url(#oxf5u4i8oa)">
            <path data-name="Path 29" d="M33.25 56.362a3.555 3.555 0 0 1-2.707 3.576 3.254 3.254 0 0 1-3.659-2.314.989.989 0 0 1 .116-.929.781.781 0 0 1 .8-.323.857.857 0 0 1 .63.626 1.617 1.617 0 0 0 1.926 1.131 1.816 1.816 0 0 0 1.244-1.982 1.712 1.712 0 0 0-1.63-1.6h-11.5a.914.914 0 0 1 0-1.818h11.5a3.486 3.486 0 0 1 3.28 3.633zm-6.571-9.092a3.424 3.424 0 0 0 3.264-3.207 3.631 3.631 0 0 0-2.494-3.963 3.236 3.236 0 0 0-3.849 2.271.989.989 0 0 0 .115.929.781.781 0 0 0 .8.323.857.857 0 0 0 .63-.626 1.617 1.617 0 0 1 1.926-1.131 1.816 1.816 0 0 1 1.244 1.982 1.712 1.712 0 0 1-1.63 1.6h-9.864a.914.914 0 0 0 0 1.818zm9.036-3.637a3.329 3.329 0 0 0-3.08 2.375.989.989 0 0 0 .115.929.781.781 0 0 0 .8.323.857.857 0 0 0 .63-.626A1.617 1.617 0 0 1 36.1 45.5a1.816 1.816 0 0 1 1.244 1.982 1.712 1.712 0 0 1-1.63 1.6H17.643a.914.914 0 0 0 0 1.818h18.071a3.656 3.656 0 0 0 0-7.274z" transform="translate(-16 -40)" style="fill:#fff"/>
        </g>
    </g>
</svg>
